<svg width="184" height="50" viewBox="0 0 184 50" fill="none" xmlns="http://www.w3.org/2000/svg">
<g clip-path="url(#clip0_1_45)">
<path d="M5.20852 49.8577L4.766 48.6064H1.90741L1.49032 49.8577H0.00506592L2.44148 42.8994H4.14037L6.59713 49.8577H5.20852ZM2.34993 47.3246H4.30822L3.30618 44.4813L2.34993 47.3246Z" fill="#173F6B"/>
<path d="M10.3255 50C9.27771 50 8.41301 49.6542 7.73143 48.9573C7.04984 48.2605 6.70905 47.4009 6.70905 46.3836C6.70905 45.3561 7.04984 44.4965 7.73143 43.8047C8.41301 43.113 9.27771 42.7671 10.3255 42.7671C10.9562 42.7671 11.5361 42.9146 12.0702 43.2096C12.6043 43.5046 13.0214 43.9065 13.3164 44.41L12.1312 45.0967C11.9583 44.7864 11.7141 44.5423 11.3937 44.3642C11.0732 44.1862 10.7172 44.0997 10.3204 44.0997C9.64394 44.0997 9.09969 44.3134 8.68768 44.7356C8.27568 45.1577 8.06713 45.7122 8.06713 46.3887C8.06713 47.0601 8.27568 47.6043 8.68768 48.0265C9.09969 48.4487 9.64903 48.6623 10.3204 48.6623C10.7172 48.6623 11.0783 48.5758 11.3988 48.3978C11.7192 48.2249 11.9634 47.9807 12.1312 47.6755L13.3164 48.3622C13.0163 48.8658 12.6043 49.2676 12.0753 49.5626C11.5463 49.8525 10.9613 50 10.3255 50Z" fill="#173F6B"/>
<path d="M17.3957 50C16.3479 50 15.4832 49.6542 14.8016 48.9573C14.12 48.2605 13.7792 47.4009 13.7792 46.3836C13.7792 45.3561 14.12 44.4965 14.8016 43.8047C15.4832 43.113 16.3479 42.7671 17.3957 42.7671C18.0264 42.7671 18.6063 42.9146 19.1404 43.2096C19.6745 43.5046 20.0915 43.9065 20.3866 44.41L19.2014 45.0967C19.0285 44.7864 18.7843 44.5423 18.4639 44.3642C18.1434 44.1862 17.7874 44.0997 17.3906 44.0997C16.7141 44.0997 16.1699 44.3134 15.7579 44.7356C15.3459 45.1577 15.1373 45.7122 15.1373 46.3887C15.1373 47.0601 15.3459 47.6043 15.7579 48.0265C16.1699 48.4487 16.7192 48.6623 17.3906 48.6623C17.7874 48.6623 18.1485 48.5758 18.469 48.3978C18.7894 48.2249 19.0336 47.9807 19.2014 47.6755L20.3866 48.3622C20.0865 48.8658 19.6745 49.2676 19.1455 49.5626C18.6165 49.8525 18.0315 50 17.3957 50Z" fill="#173F6B"/>
<path d="M22.6043 48.5454H25.5392V49.8577H21.236V42.8994H25.4934V44.2117H22.6094V45.6919H25.2442V46.9839H22.6094V48.5454H22.6043Z" fill="#173F6B"/>
<path d="M28.8809 50C28.1892 50 27.6093 49.8475 27.1414 49.5372C26.6683 49.2269 26.3377 48.8098 26.1444 48.2808L27.3194 47.5941C27.589 48.3012 28.123 48.6572 28.9216 48.6572C29.3082 48.6572 29.5879 48.586 29.766 48.4487C29.944 48.3113 30.0356 48.1333 30.0356 47.9197C30.0356 47.6755 29.9237 47.4822 29.7049 47.35C29.4862 47.2127 29.0946 47.0652 28.53 46.9075C28.2197 46.8159 27.9552 46.7193 27.7416 46.6277C27.5279 46.5362 27.3092 46.409 27.0956 46.2564C26.8819 46.0987 26.7141 45.9054 26.6022 45.6664C26.4903 45.4273 26.4343 45.1476 26.4343 44.8322C26.4343 44.2015 26.6581 43.703 27.1058 43.3266C27.5534 42.9502 28.0925 42.7671 28.7232 42.7671C29.2878 42.7671 29.7812 42.9044 30.2085 43.1791C30.6358 43.4538 30.9715 43.8352 31.2054 44.3286L30.0508 44.995C29.7711 44.3998 29.3285 44.0997 28.7182 44.0997C28.4333 44.0997 28.2095 44.1659 28.0467 44.293C27.884 44.4202 27.8026 44.588 27.8026 44.7966C27.8026 45.0153 27.8942 45.1933 28.0773 45.3307C28.2604 45.468 28.6113 45.6155 29.1251 45.7732C29.3387 45.8393 29.4964 45.8902 29.6083 45.9258C29.7151 45.9614 29.8677 46.0173 30.0559 46.0936C30.2441 46.1699 30.3916 46.2411 30.4933 46.3073C30.5951 46.3734 30.7121 46.465 30.8443 46.5769C30.9766 46.6888 31.0783 46.8057 31.1495 46.9227C31.2207 47.0397 31.2767 47.1872 31.3275 47.3551C31.3784 47.5229 31.4038 47.7061 31.4038 47.9044C31.4038 48.5453 31.1698 49.0591 30.7019 49.4355C30.2339 49.8068 29.6286 50 28.8809 50Z" fill="#173F6B"/>
<path d="M34.4659 50C33.7741 50 33.1943 49.8475 32.7263 49.5372C32.2533 49.2269 31.9227 48.8098 31.7294 48.2808L32.9043 47.5941C33.1739 48.3012 33.708 48.6572 34.5066 48.6572C34.8931 48.6572 35.1729 48.586 35.3509 48.4487C35.529 48.3113 35.6205 48.1333 35.6205 47.9197C35.6205 47.6755 35.5086 47.4822 35.2899 47.35C35.0712 47.2127 34.6795 47.0652 34.1149 46.9075C33.8046 46.8159 33.5401 46.7193 33.3265 46.6277C33.1129 46.5362 32.8942 46.409 32.6805 46.2564C32.4669 46.0987 32.2991 45.9054 32.1872 45.6664C32.0752 45.4273 32.0193 45.1476 32.0193 44.8322C32.0193 44.2015 32.2431 43.703 32.6907 43.3266C33.1383 42.9502 33.6775 42.7671 34.3082 42.7671C34.8728 42.7671 35.3662 42.9044 35.7935 43.1791C36.2207 43.4538 36.5564 43.8352 36.7904 44.3286L35.6358 44.995C35.356 44.3998 34.9135 44.0997 34.3031 44.0997C34.0183 44.0997 33.7945 44.1659 33.6317 44.293C33.4689 44.4202 33.3876 44.588 33.3876 44.7966C33.3876 45.0153 33.4791 45.1933 33.6622 45.3307C33.8453 45.468 34.1963 45.6155 34.71 45.7732C34.9237 45.8393 35.0814 45.8902 35.1933 45.9258C35.3001 45.9614 35.4527 46.0173 35.6409 46.0936C35.8291 46.1699 35.9766 46.2411 36.0783 46.3073C36.18 46.3734 36.297 46.465 36.4293 46.5769C36.5615 46.6888 36.6632 46.8057 36.7345 46.9227C36.8057 47.0397 36.8616 47.1872 36.9125 47.3551C36.9633 47.5229 36.9888 47.7061 36.9888 47.9044C36.9888 48.5453 36.7548 49.0591 36.2868 49.4355C35.824 49.8068 35.2136 50 34.4659 50Z" fill="#173F6B"/>
<path d="M37.8383 42.8994H39.2116V49.8577H37.8383V42.8994Z" fill="#173F6B"/>
<path d="M44.5269 42.8994H45.9003V49.8577H44.8576L41.8769 45.6003V49.8577H40.5035V42.8994H41.5463L44.532 47.1364V42.8994H44.5269Z" fill="#173F6B"/>
<path d="M54.0234 46.1191V46.6582C54.0234 47.6552 53.703 48.4588 53.0672 49.0743C52.4313 49.6898 51.6073 50 50.6002 50C49.527 50 48.6368 49.6491 47.9298 48.9522C47.2228 48.2554 46.8718 47.4009 46.8718 46.3937C46.8718 45.3815 47.2228 44.5219 47.9196 43.82C48.6165 43.1181 49.4863 42.7671 50.5188 42.7671C51.1699 42.7671 51.7599 42.9146 52.2991 43.2096C52.8383 43.5046 53.2554 43.8963 53.5504 44.3897L52.3754 45.0662C52.2075 44.7813 51.9583 44.5474 51.6226 44.3693C51.2869 44.1913 50.9156 44.0997 50.5036 44.0997C49.8423 44.0997 49.293 44.3185 48.8708 44.7508C48.4435 45.1832 48.2299 45.7325 48.2299 46.3988C48.2299 47.055 48.4486 47.5992 48.881 48.0265C49.3133 48.4538 49.8881 48.6674 50.6053 48.6674C51.1343 48.6674 51.5768 48.5504 51.9227 48.3164C52.2686 48.0824 52.5076 47.7569 52.6348 47.3449H50.529V46.1343H54.0234V46.1191Z" fill="#173F6B"/>
<path d="M60.2441 42.8994C61.2004 42.8994 61.9939 43.2351 62.6348 43.9014C63.2757 44.5678 63.5961 45.3969 63.5961 46.3786C63.5961 47.3602 63.2757 48.1843 62.6348 48.8557C61.9939 49.5271 61.2004 49.8577 60.2441 49.8577H57.4822V42.8994H60.2441ZM60.2441 48.5454C60.8494 48.5454 61.3377 48.347 61.7141 47.9452C62.0905 47.5434 62.2787 47.0245 62.2787 46.3786C62.2787 45.7326 62.0905 45.2138 61.7141 44.8119C61.3377 44.4101 60.8443 44.2117 60.2441 44.2117H58.8504V48.5454H60.2441Z" fill="#173F6B"/>
<path d="M68.3876 49.8577L66.9786 47.4416H65.941V49.8577H64.5676V42.8994H67.3499C67.9908 42.8994 68.5402 43.1232 68.9928 43.5759C69.4455 44.0286 69.6694 44.5729 69.6694 45.2087C69.6694 45.641 69.5473 46.0378 69.3031 46.4091C69.059 46.7753 68.7334 47.0551 68.3265 47.2382L69.8677 49.8628H68.3876V49.8577ZM65.941 44.1812V46.2412H67.355C67.6144 46.2412 67.8382 46.1395 68.0213 45.936C68.2095 45.7326 68.3011 45.4884 68.3011 45.2036C68.3011 44.9187 68.2095 44.6746 68.0213 44.4762C67.8382 44.2779 67.6144 44.1761 67.355 44.1761H65.941V44.1812Z" fill="#173F6B"/>
<path d="M70.6765 42.8994H72.0498V49.8577H70.6765V42.8994Z" fill="#173F6B"/>
<path d="M75.061 49.8577L72.7263 42.8994H74.2167L75.9206 48.2504L77.6093 42.8994H79.1098L76.765 49.8577H75.061Z" fill="#173F6B"/>
<path d="M81.1444 48.5454H84.0793V49.8577H79.7761V42.8994H84.0335V44.2117H81.1495V45.6919H83.7843V46.9839H81.1495V48.5454H81.1444Z" fill="#173F6B"/>
<path d="M88.8606 49.8577L87.4517 47.4416H86.4141V49.8577H85.0407V42.8994H87.823C88.4639 42.8994 89.0132 43.1232 89.4659 43.5759C89.9186 44.0286 90.1424 44.5729 90.1424 45.2087C90.1424 45.641 90.0204 46.0378 89.7762 46.4091C89.5321 46.7753 89.2065 47.0551 88.7996 47.2382L90.3408 49.8628H88.8606V49.8577ZM86.4141 44.1812V46.2412H87.8281C88.0875 46.2412 88.3113 46.1395 88.4944 45.936C88.6826 45.7326 88.7742 45.4884 88.7742 45.2036C88.7742 44.9187 88.6826 44.6746 88.4944 44.4762C88.3113 44.2779 88.0875 44.1761 87.8281 44.1761H86.4141V44.1812Z" fill="#173F6B"/>
<path d="M93.413 50C92.7212 50 92.1414 49.8475 91.6734 49.5372C91.2004 49.2269 90.8698 48.8098 90.6765 48.2808L91.8515 47.5941C92.121 48.3012 92.6551 48.6572 93.4537 48.6572C93.8403 48.6572 94.12 48.586 94.298 48.4487C94.4761 48.3113 94.5676 48.1333 94.5676 47.9197C94.5676 47.6755 94.4557 47.4822 94.237 47.35C94.0183 47.2127 93.6266 47.0652 93.062 46.9075C92.7518 46.8159 92.4873 46.7193 92.2736 46.6277C92.06 46.5362 91.8413 46.409 91.6277 46.2564C91.414 46.0987 91.2462 45.9054 91.1343 45.6664C91.0224 45.4273 90.9664 45.1476 90.9664 44.8322C90.9664 44.2015 91.1902 43.703 91.6378 43.3266C92.0854 42.9502 92.6246 42.7671 93.2553 42.7671C93.8199 42.7671 94.3133 42.9044 94.7406 43.1791C95.1678 43.4538 95.5035 43.8352 95.7375 44.3286L94.5829 44.995C94.3031 44.3998 93.8606 44.0997 93.2502 44.0997C92.9654 44.0997 92.7416 44.1659 92.5788 44.293C92.4161 44.4202 92.3347 44.588 92.3347 44.7966C92.3347 45.0153 92.4262 45.1933 92.6093 45.3307C92.7925 45.468 93.1434 45.6155 93.6572 45.7732C93.8708 45.8393 94.0285 45.8902 94.1404 45.9258C94.2472 45.9614 94.3998 46.0173 94.588 46.0936C94.7762 46.1699 94.9237 46.2411 95.0254 46.3073C95.1271 46.3734 95.2441 46.465 95.3764 46.5769C95.5086 46.6888 95.6104 46.8057 95.6816 46.9227C95.7528 47.0397 95.8087 47.1872 95.8596 47.3551C95.9105 47.5229 95.9359 47.7061 95.9359 47.9044C95.9359 48.5453 95.7019 49.0591 95.234 49.4355C94.7711 49.8068 94.1607 50 93.413 50Z" fill="#173F6B"/>
<path d="M100.692 48.5454H103.627V49.8577H99.3235V42.8994H103.581V44.2117H100.697V45.6919H103.332V46.9839H100.697V48.5454H100.692Z" fill="#173F6B"/>
<path d="M109.273 49.8577L108.83 48.6064H105.972L105.554 49.8577H104.074L106.511 42.8994H108.21L110.666 49.8577H109.273ZM106.419 47.3246H108.377L107.375 44.4813L106.419 47.3246Z" fill="#173F6B"/>
<path d="M113.555 50C112.864 50 112.284 49.8475 111.816 49.5372C111.343 49.2269 111.012 48.8098 110.819 48.2808L111.994 47.5941C112.263 48.3012 112.798 48.6572 113.596 48.6572C113.983 48.6572 114.262 48.586 114.44 48.4487C114.619 48.3113 114.71 48.1333 114.71 47.9197C114.71 47.6755 114.598 47.4822 114.379 47.35C114.161 47.2127 113.769 47.0652 113.204 46.9075C112.894 46.8159 112.63 46.7193 112.416 46.6277C112.202 46.5362 111.984 46.409 111.77 46.2564C111.556 46.0987 111.389 45.9054 111.277 45.6664C111.165 45.4273 111.109 45.1476 111.109 44.8322C111.109 44.2015 111.333 43.703 111.78 43.3266C112.228 42.9502 112.767 42.7671 113.398 42.7671C113.962 42.7671 114.456 42.9044 114.883 43.1791C115.31 43.4538 115.646 43.8352 115.88 44.3286L114.725 44.995C114.446 44.3998 114.003 44.0997 113.393 44.0997C113.108 44.0997 112.884 44.1659 112.721 44.293C112.558 44.4202 112.477 44.588 112.477 44.7966C112.477 45.0153 112.569 45.1933 112.752 45.3307C112.935 45.468 113.286 45.6155 113.8 45.7732C114.013 45.8393 114.171 45.8902 114.283 45.9258C114.39 45.9614 114.542 46.0173 114.73 46.0936C114.919 46.1699 115.066 46.2411 115.168 46.3073C115.27 46.3734 115.387 46.465 115.519 46.5769C115.651 46.6888 115.753 46.8057 115.824 46.9227C115.895 47.0397 115.951 47.1872 116.002 47.3551C116.053 47.5229 116.078 47.7061 116.078 47.9044C116.078 48.5453 115.844 49.0591 115.376 49.4355C114.914 49.8068 114.303 50 113.555 50Z" fill="#173F6B"/>
<path d="M116.928 42.8994H118.301V49.8577H116.928V42.8994Z" fill="#173F6B"/>
<path d="M120.961 48.5454H123.896V49.8577H119.593V42.8994H123.85V44.2117H120.966V45.6919H123.601V46.9839H120.966V48.5454H120.961Z" fill="#173F6B"/>
<path d="M128.677 49.8577L127.269 47.4416H126.231V49.8577H124.858V42.8994H127.64C128.281 42.8994 128.83 43.1232 129.283 43.5759C129.735 44.0286 129.959 44.5729 129.959 45.2087C129.959 45.641 129.837 46.0378 129.593 46.4091C129.349 46.7753 129.023 47.0551 128.616 47.2382L130.158 49.8628H128.677V49.8577ZM126.231 44.1812V46.2412H127.645C127.904 46.2412 128.128 46.1395 128.311 45.936C128.499 45.7326 128.591 45.4884 128.591 45.2036C128.591 44.9187 128.499 44.6746 128.311 44.4762C128.128 44.2779 127.904 44.1761 127.645 44.1761H126.231V44.1812Z" fill="#173F6B"/>
<path d="M138.052 42.8994V44.2117H136.175V49.8577H134.802V44.2117H132.935V42.8994H138.052Z" fill="#173F6B"/>
<path d="M142.777 42.8994H144.14V49.8577H142.777V46.9737H140.193V49.8577H138.82V42.8994H140.193V45.6614H142.777V42.8994Z" fill="#173F6B"/>
<path d="M150.005 49.8577L149.563 48.6064H146.704L146.287 49.8577H144.807L147.243 42.8994H148.942L151.399 49.8577H150.005ZM147.152 47.3246H149.11L148.108 44.4813L147.152 47.3246Z" fill="#173F6B"/>
<path d="M156.099 42.8994H157.472V49.8577H156.429L153.449 45.6003V49.8577H152.075V42.8994H153.118L156.104 47.1364V42.8994H156.099Z" fill="#173F6B"/>
<path d="M162.619 48.5454H165.554V49.8577H161.251V42.8994H165.509V44.2117H162.625V45.6919H165.259V46.9839H162.625V48.5454H162.619Z" fill="#173F6B"/>
<path d="M168.235 49.8577L165.9 42.8994H167.391L169.095 48.2504L170.783 42.8994H172.284L169.939 49.8577H168.235Z" fill="#173F6B"/>
<path d="M174.323 48.5454H177.258V49.8577H172.955V42.8994H177.213V44.2117H174.329V45.6919H176.963V46.9839H174.329V48.5454H174.323Z" fill="#173F6B"/>
<path d="M182.04 49.8577L180.631 47.4416H179.593V49.8577H178.22V42.8994H181.002C181.643 42.8994 182.192 43.1232 182.645 43.5759C183.098 44.0286 183.321 44.5729 183.321 45.2087C183.321 45.641 183.199 46.0378 182.955 46.4091C182.711 46.7753 182.386 47.0551 181.979 47.2382L183.52 49.8628H182.04V49.8577ZM179.593 44.1812V46.2412H181.007C181.266 46.2412 181.49 46.1395 181.673 45.936C181.862 45.7326 181.953 45.4884 181.953 45.2036C181.953 44.9187 181.862 44.6746 181.673 44.4762C181.49 44.2779 181.266 44.1761 181.007 44.1761H179.593V44.1812Z" fill="#173F6B"/>
<path d="M29.527 20.5188H28.4232C25.9359 20.5188 24.3388 21.8718 24.3388 24.4811V32.065H20.1933V16.8616H23.998V18.6724C25.0102 17.416 26.4853 16.6785 28.174 16.6785C28.6979 16.6785 29.1251 16.7395 29.527 16.8616V20.5188Z" fill="#001B72"/>
<path d="M31.0682 16.8616H35.2137V25.7019C35.2137 27.4516 36.409 28.6164 38.0977 28.6164C39.6948 28.6164 40.9207 27.4516 40.9207 25.7019V16.8616H45.0661V25.3661C45.0661 29.6032 42.06 32.4262 38.0977 32.4262C34.0438 32.4262 31.0682 29.6032 31.0682 25.3661V16.8616Z" fill="#001B72"/>
<path d="M54.7253 16.5259C57.7009 16.5259 60.0051 17.9399 61.3275 20.2695L58.4435 22.5127C57.4923 21.1291 56.3886 20.3 54.7914 20.3C52.4567 20.3 50.7986 22.0803 50.7986 24.4455C50.7986 26.8718 52.4567 28.6215 54.7914 28.6215C56.3581 28.6215 57.4618 27.8229 58.4435 26.4394L61.3275 28.652C60.0051 30.9867 57.6755 32.4262 54.7253 32.4262C50.2746 32.5177 46.531 28.8351 46.592 24.4455C46.592 19.9949 50.2136 16.5259 54.7253 16.5259Z" fill="#001B72"/>
<path d="M85.2086 28.1484C86.9227 29.1708 88.7894 28.8198 90.351 27.2583C91.414 26.1952 92.0448 24.827 92.2635 23.179L95.4781 23.9623C95.2594 26.3071 94.3693 28.2807 92.7874 29.8677C89.532 33.2552 84.3235 33.2959 81.2818 30.1271C78.1129 27.0904 78.1129 21.9226 81.2818 18.8809C84.2574 15.9053 88.53 16.0172 91.3327 18.8148C91.8515 19.3336 92.3296 19.944 92.7416 20.6154L85.2086 28.1484ZM88.0265 21.2003C86.6785 19.8982 84.8118 20.0711 83.5351 21.3529C82.2991 22.5889 82.1465 24.4353 83.1435 26.0833L88.0265 21.2003Z" fill="#001B72"/>
<path d="M106.343 20.5188H105.239C102.752 20.5188 101.155 21.8718 101.155 24.4811V32.065H97.0092V16.8616H100.814V18.6724C101.826 17.416 103.301 16.6785 104.99 16.6785C105.514 16.6785 105.941 16.7395 106.343 16.8616V20.5188Z" fill="#001B72"/>
<path d="M109.959 26.9633C111.282 28.3468 112.721 29.0183 114.227 29.0183C115.331 29.0183 116.16 28.5859 116.16 27.7619C116.16 27.1159 115.727 26.8718 114.593 26.3784L112.965 25.7019C110.173 24.5676 108.82 23.3061 108.82 21.0681C108.82 18.2146 111.094 16.5259 114.405 16.5259C116.679 16.5259 118.489 17.2939 119.868 18.7995L117.782 21.3479C116.77 20.3967 115.636 19.9033 114.374 19.9033C113.362 19.9033 112.747 20.2695 112.747 20.9765C112.747 21.5615 113.143 21.8362 114.344 22.3295L115.819 22.945C118.764 24.1403 120.086 25.3407 120.086 27.5788C120.086 29.0844 119.532 30.2797 118.398 31.1393C117.294 31.9989 115.88 32.4262 114.161 32.4262C111.49 32.4262 109.247 31.3224 107.869 29.4811L109.959 26.9633Z" fill="#001B72"/>
<path d="M71.6785 23.586L77.3906 16.8617H72.4771L67.0142 23.3419V5.96143L62.8688 10.875V32.0601H67.0142V23.6471L73.1231 32.0601H77.8484L71.6785 23.586Z" fill="#001B72"/>
<path d="M3.1587 11.8005L0 15.5442H8.0061V32.0599H12.1516V15.5442H18.6572V11.8005H3.1587Z" fill="#001B72"/>
<path d="M117.075 0C117.075 0 130.437 27.7874 131.073 29.8881C130.809 27.706 119.095 1.64293 119.095 1.64293C120.799 1.63276 138.22 1.28688 138.942 1.43947C139.934 1.64802 140.453 2.1414 141.078 2.86368C142.279 4.30824 143.103 6.10885 143.784 7.93489L141.816 7.90437L132.111 7.8179L130.794 7.80773C130.794 7.80773 135.443 19.3744 138.072 20.234C139.385 20.6562 145.071 20.4985 146.399 20.5137L159.379 20.3764L159.593 20.3713C160.295 21.9634 160.941 23.6724 161.475 25.3357C161.099 23.6724 160.58 21.9685 159.99 20.3662L167.319 20.3408L169.298 20.3103C169.298 20.3103 170.86 20.295 171.15 20.3713C172.284 20.5951 173.357 21.3479 174.293 22.1974C176.17 23.9369 177.696 27.6755 178.555 30.1475C179.486 32.823 180.005 34.8474 180.677 37.2991C180.341 34.588 179.822 32.2787 178.896 29.4964C178.057 26.9837 176.877 23.4435 174.944 21.5158C174.461 21.0326 173.937 20.5849 173.352 20.1933C172.777 19.7965 172.121 19.471 171.394 19.293C171.012 19.1963 170.626 19.176 170.295 19.1556L169.303 19.1404L167.325 19.1099L159.517 19.1556C159.125 18.2045 158.647 17.1109 158.184 16.1902C157.426 14.7457 156.572 13.3316 155.519 12.0498C154.466 10.7731 153.189 9.61852 151.643 8.85555C151.45 8.7589 150.036 7.98576 146.673 7.98576L143.835 7.94507C143.459 6.01729 142.843 4.10987 141.709 2.39573C141.099 1.5412 140.28 0.666328 139.069 0.376399C138.418 0.254324 137.971 0.279756 137.447 0.254324L117.075 0ZM141.811 9.29807L146.663 9.22686C150.193 9.22686 150.997 9.76094 151.17 9.83723C152.553 10.4476 153.784 11.4547 154.837 12.6246C155.88 13.8098 156.801 15.117 157.625 16.4903C158.098 17.3093 158.596 18.296 159.013 19.1455C159.013 19.1455 140.478 19.354 139.044 18.7182C137.126 17.8637 134.507 11.7141 133.484 9.37436L141.811 9.29807Z" fill="#EA002A"/>
<path d="M162.426 37.3551C162.426 34.8272 161.404 31.9584 159.608 30.1832C157.828 28.3979 155.32 27.3704 152.803 27.3857C150.285 27.3857 147.787 28.4233 146.022 30.2137C144.242 31.9889 143.22 34.4864 143.235 36.994L143.566 36.6634L0.0101929 36.9889L143.561 37.3195H143.891V36.9889C143.891 34.6542 144.858 32.345 146.516 30.7071C148.164 29.0591 150.473 28.113 152.798 28.1232C155.122 28.1232 157.421 29.0845 159.049 30.7326C160.692 32.3704 161.612 35.0357 161.597 37.3501H162.426V37.3551Z" fill="#EA002A"/>
</g>
<defs>
<clipPath id="clip0_1_45">
<rect width="183.52" height="50" fill="white"/>
</clipPath>
</defs>
</svg>
